<svg xmlns="http://www.w3.org/2000/svg" width="700" height="200" viewBox="0 0 700 200">
  <defs>
    <linearGradient id="bg" x1="0" y1="0" x2="1" y2="1">
      <stop offset="0%" stop-color="#0D0D0D"/>
      <stop offset="100%" stop-color="#1a1a1a"/>
    </linearGradient>
  </defs>
  <rect width="700" height="200" rx="16" fill="url(#bg)" stroke="rgba(255,255,255,0.06)" stroke-width="1"/>
  <text x="24" y="36" font-family="system-ui,-apple-system,sans-serif" font-size="16" font-weight="700" fill="#ffffff">Sports Fair</text>
  <text x="24" y="54" font-family="system-ui,-apple-system,sans-serif" font-size="11" fill="rgba(255,255,255,0.4)">Fitness Dashboard · Auto-updated daily</text>
  <line x1="24" y1="66" x2="676" y2="66" stroke="rgba(255,255,255,0.06)" stroke-width="1"/>

  <text x="40" y="98" font-family="system-ui,-apple-system,sans-serif" font-size="11" fill="rgba(255,255,255,0.4)" font-weight="600">ACWR</text>
  <text x="40" y="128" font-family="system-ui,-apple-system,sans-serif" font-size="32" font-weight="800" fill="#22c55e">1.02</text>
  <rect x="40" y="136" width="60" height="20" rx="6" fill="#22c55e22"/>
  <text x="70" y="150" font-family="system-ui,-apple-system,sans-serif" font-size="10" font-weight="700" fill="#22c55e" text-anchor="middle">Sweet Spot</text>

  <text x="220" y="98" font-family="system-ui,-apple-system,sans-serif" font-size="11" fill="rgba(255,255,255,0.4)" font-weight="600">TSB</text>
  <text x="220" y="128" font-family="system-ui,-apple-system,sans-serif" font-size="32" font-weight="800" fill="#f97316">-9.1</text>
  <rect x="220" y="136" width="60" height="20" rx="6" fill="#f9731622"/>
  <text x="250" y="150" font-family="system-ui,-apple-system,sans-serif" font-size="10" font-weight="700" fill="#f97316" text-anchor="middle">fatigued</text>

  <text x="400" y="98" font-family="system-ui,-apple-system,sans-serif" font-size="11" fill="rgba(255,255,255,0.4)" font-weight="600">Activities</text>
  <text x="400" y="128" font-family="system-ui,-apple-system,sans-serif" font-size="32" font-weight="800" fill="#FF8800">44</text>
  <text x="400" y="150" font-family="system-ui,-apple-system,sans-serif" font-size="10" fill="rgba(255,255,255,0.4)">with HR data</text>

  <text x="520" y="98" font-family="system-ui,-apple-system,sans-serif" font-size="11" fill="rgba(255,255,255,0.4)" font-weight="600">HR Zones</text>
  <rect x="520" y="118" width="80" height="8" rx="4" fill="rgba(255,255,255,0.06)"/>
  <rect x="520" y="118" width="42" height="8" rx="0" fill="#FF5500"/><rect x="562" y="118" width="12" height="8" rx="0" fill="#FF8800"/><rect x="574" y="118" width="21" height="8" rx="0" fill="#FFB347"/><rect x="595" y="118" width="3" height="8" rx="0" fill="#FF9900"/>

  <text x="24" y="182" font-family="system-ui,-apple-system,sans-serif" font-size="10" fill="rgba(255,255,255,0.2)">github.com/wuleiyuan/sports-fair</text>
</svg>