<?xml version="1.0" encoding="utf-8" ?>
<svg baseProfile="full" height="200mm" version="1.1" viewBox="0,0,200,200" width="200mm" xmlns="http://www.w3.org/2000/svg" xmlns:ev="http://www.w3.org/2001/xml-events" xmlns:xlink="http://www.w3.org/1999/xlink"><defs /><rect fill="#1a1a1a" height="200" width="200" x="0" y="0" /><rect fill="#1a1a1a" height="200" width="180" x="10" y="0" /><text alignment-baseline="middle" fill="#e1ed5e" style="dominant-baseline: central; font-size:9.0px; font-family:Arial;" text-anchor="middle" x="100.0" y="100.0">2024</text><line stroke="#e1ed5e" stroke-width="0.3" x1="100.0" x2="100.0" y1="15.0" y2="10.0" /><path d="M 100.0 14.0 a86.0,86.0 0 0,1 42.35913384403234,11.155469271406648" fill="none" id="id61" stroke="none" /><text fill="#e1ed5e" style="font-size:6.75px; font-family:Arial;" text-anchor="middle"><textPath startOffset="22.145653131862478" xlink:href="#id61">January</textPath></text><path d="M 103.58742460773223 79.30868818359171 l 4.689466142451813 -27.04759453252945 a48.45111040918598,48.45111040918598 0 0,0 0.8182821896676792,0.14911827337136632 l -5.153083065670546 26.963108085226718" fill="#b6ff1f" stroke="none" /><path d="M 104.64783097203109 79.52079915486377 l 5.272173536212498 -23.23016938185372 a44.82092742328798,44.82092742328798 0 0,0 0.7488677272566658,0.17673074457146676 l -5.670173417209049 23.136242493636026" fill="#e1ff1b" stroke="none" /><path d="M 105.3480935250658 79.69241777938227 l 7.7642818475713895 -29.482242833751805 a51.48748456525786,51.48748456525786 0 0,0 0.8527764167087912,0.23242800450226467 l -8.269239665214874 29.344614335105398" fill="#93ff23" stroke="none" /><path d="M 106.38641147887787 79.99465700312896 l 11.853766894247315 -37.13175596478143 a59.97793081490134,59.97793081490134 0 0,0 0.9781465498590726,0.321536199397852 l -12.48943618175413 36.92279884398156" fill="#38ff2e" stroke="none" /><path d="M 107.40779381753099 80.34994680014964 l 18.87003138414563 -50.05500014103983 a74.49374845304952,74.49374845304952 0 0,0 1.1927078333688212,0.4613650122295458 l -19.72651148000798 49.72369524067224" fill="#41ffcd" stroke="none" /><path d="M 108.07796709384702 80.6158196554323 l 5.188621344228976 -12.450802374871918 a34.48867195953348,34.48867195953348 0 0,0 0.544534948844496,0.2324295896121404 l -5.401591368243902 12.359898135600377" fill="#ff970e" stroke="none" /><path d="M 109.06512990194946 81.05736502329252 l 10.735073714409435 -22.432175271572746 a45.868540268145296,45.868540268145296 0 0,0 0.7073360308166196,0.3459934977329285 l -11.118569994488121 22.244588023742594" fill="#d4ff1c" stroke="none" /><path d="M 110.34350942703115 81.72400993836675 l 31.030528281093456 -54.82797018489978 a84.0,84.0 0 0,0 1.2488301285584105,0.7210124108953133 l -31.967150877512267 54.287210876728295" fill="#4dd2ff" stroke="none" /><line stroke="#e1ed5e" stroke-width="0.3" x1="143.13028292997686" x2="145.6673583964461" y1="26.7553504044142" y2="22.446841604673864" /><path d="M 143.63769802327073 25.89364864446614 a86.0,86.0 0 0,1 29.32050498858742,28.57503671076993" fill="none" id="id62" stroke="none" /><text fill="#e1ed5e" style="font-size:6.75px; font-family:Arial;" text-anchor="middle"><textPath startOffset="20.669276256404974" xlink:href="#id62">February</textPath></text><path d="M 111.5731344415666 82.4767994020092 l 1.620439824900353 -2.45355242800223 a23.940364729600518,23.940364729600518 0 0,0 0.3409834264254834,0.22942886690588382 l -1.6623195394228376 2.425373887039227" fill="#ff0000" stroke="none" /><path d="M 112.16784306229584 82.88440491214696 l 8.072821185804862 -11.355433984929075 a34.932563399606764,34.932563399606764 0 0,0 0.4857605651904989,0.35165318841133486 l -8.266562761369329 11.215180025144665" fill="#ff9e0e" stroke="none" /><path d="M 114.13192950727249 84.46653392183569 l 6.23150073018335 -6.849510900726341 a30.259989251043685,30.259989251043685 0 0,0 0.3812329655326472,0.35286354141931836 l -6.348163467029962 6.741529613174648" fill="#ff5d08" stroke="none" /><path d="M 114.65682725009322 84.96080404539774 l 9.535562150590936 -9.784326803682127 a34.66235691705626,34.66235691705626 0 0,0 0.42256397324311834,0.4189523370541798 l -9.702118043964017 9.619194456399288" fill="#ff9a0e" stroke="none" /><path d="M 115.16444852881244 85.47280134310134 l 9.825512824368671 -9.412619023653159 a34.606546187268485,34.606546187268485 0 0,0 0.40727647641524195,0.43251350422256646 l -9.985645134520173 9.242564059486098" fill="#ff990e" stroke="none" /><path d="M 115.6541949942343 86.00192230759917 l 10.047938139899697 -8.984928243359548 a34.4792431687232,34.4792431687232 0 0,0 0.390746590344642,0.4445978914499488 l -10.20069579420293 8.8111180740983" fill="#ff970e" stroke="none" /><path d="M 116.35404254752997 86.82634096563983 l 15.239638102620612 -12.275973698092741 a40.56900865488875,40.56900865488875 0 0,0 0.43222138627103485,0.546097601994755 l -15.448125919533206 12.012556152183308" fill="#ffe815" stroke="none" /><path d="M 116.7966241395341 87.39550010848427 l 7.584823398581601 -5.691792881140195 a30.482934787789546,30.482934787789546 0 0,0 0.31048753277457736,0.4212359690659453 l -7.681412950940004 5.560750602805375" fill="#ff6008" stroke="none" /><path d="M 117.21940702142032 87.97951657250589 l 6.1600945237586435 -4.3002243946336725 a28.51256909358202,28.51256909358202 0 0,0 0.27672162909686576,0.40374512677840757 l -6.233005889670834 4.193844532785216" fill="#ff4406" stroke="none" /><line stroke="#e1ed5e" stroke-width="0.3" x1="172.87174338648825" x2="177.1583165268699" y1="56.24261187166439" y2="53.66864786411523" /><path d="M 173.72905801456457 55.72781907015455 a86.0,86.0 0 0,1 12.242430191666344,42.057860355516425" fill="none" id="id63" stroke="none" /><text fill="#e1ed5e" style="font-size:6.75px; font-family:Arial;" text-anchor="middle"><textPath startOffset="22.145653131862474" xlink:href="#id63">March</textPath></text><path d="M 118.53625476483649 90.13048839642627 l 21.145813260941566 -11.258954518782845 a44.956407813414614,44.956407813414614 0 0,0 0.35685097287466533,0.6843087930516321 l -21.335972302791173 10.894299482626716" fill="#dfff1b" stroke="none" /><path d="M 119.0197475246899 91.09779779509293 l 34.80159426100526 -16.288903349659666 a59.4249832198036,59.4249832198036 0 0,0 0.424508126604687,0.9276268681504348 l -35.076086852465 15.689087499294548" fill="#3eff2d" stroke="none" /><path d="M 119.31412917781788 91.75594674310238 l 22.187319250123203 -9.47044724832222 a45.123981980389175,45.123981980389175 0 0,0 0.2979776234419723,0.7150378213157669 l -22.34662271810166 9.088176917565175" fill="#ddff1b" stroke="none" /><path d="M 119.58574465831526 92.42381321644754 l 13.00052559985044 -5.028882585120688 a34.93927279047572,34.93927279047572 0 0,0 0.21158111565645324,0.5612440466274592 l -13.084937399321333 4.804970258299072" fill="#ff9e0e" stroke="none" /><path d="M 119.83427380445688 93.10060997987247 l 14.298646486661664 -4.9738114863190654 a36.13902546572802,36.13902546572802 0 0,0 0.19878972816472087,0.5876865086991309 l -14.38192163639875 4.727623303145773" fill="#ffae10" stroke="none" /><path d="M 120.51834098615036 95.52812308129327 l 8.996440356453409 -1.9607323032452375 a30.207627829805727,30.207627829805727 0 0,0 0.10607522032073519,0.5076083288967439 l -9.028773287598511 1.8060075230630892" fill="#ff5c08" stroke="none" /><path d="M 120.65975698304385 96.23510406497455 l 11.525057540323926 -2.100249403713322 a32.714862306727106,32.714862306727106 0 0,0 0.09594051266077204,0.5533593818282362 l -11.559412870476931 1.9020969889644932" fill="#ff7f0b" stroke="none" /><path d="M 120.9064616781168 98.02013634271609 l 28.856981965229977 -2.7327861945983094 a49.98609198438098,49.98609198438098 0 0,0 0.07356614374927205,0.8549501030825608 l -28.89964173167699 2.2370150441400867" fill="#a4ff21" stroke="none" /><path d="M 120.96210409425399 98.7389718711861 l 26.428163547104134 -1.5898526920743632 a47.47594115522581,47.47594115522581 0 0,0 0.041956095566394194,0.8139370453270388 l -26.4515612321271 1.1359438533705937" fill="#c1ff1e" stroke="none" /><path d="M 120.98066250479742 99.09900007780936 l 31.919272137893763 -1.3707508857762776 a52.948691550731425,52.948691550731425 0 0,0 0.031202696716554474,0.9084324697740593 l -31.938099521607164 0.8226121514380984" fill="#83ff25" stroke="none" /><line stroke="#e1ed5e" stroke-width="0.3" x1="184.99686870605535" x2="189.99668451229388" y1="99.2704041080226" y2="99.22748670261217" /><path d="M 185.99683186730306 99.26182062694052 a86.0,86.0 0 0,1 -10.086455211305974,41.156179273409016" fill="none" id="id64" stroke="none" /><text fill="#e1ed5e" style="font-size:6.75px; font-family:Arial;" text-anchor="middle"><textPath startOffset="21.40746469413373" xlink:href="#id64">April</textPath></text><path d="M 120.99303781780057 100.54070618675476 l 13.594145447256206 0.35013696496763186 a34.598653842766694,34.598653842766694 0 0,0 -0.020389008132953412,0.5936037254316047 l -13.586131752126407 -0.5834469549633472" fill="#ff990e" stroke="none" /><path d="M 120.93736805541906 101.62068470465957 l 56.233913419704564 4.352860546809621 a77.40213128450733,77.40213128450733 0 0,0 -0.11391521302276116,1.3238674497933909 l -56.150904583984065 -5.31754904397867" fill="#45ffec" stroke="none" /><path d="M 120.65975698304385 103.76489593502545 l 25.50722630368199 4.648266322944808 a46.92730170141639,46.92730170141639 0 0,0 -0.15122592853945638,0.7912779601133009 l -25.423674082860373 -5.085446848091423" fill="#c8ff1d" stroke="none" /><path d="M 120.51834098615036 104.47187691870673 l 30.583825333112813 6.665602383994951 a52.30176715694934,52.30176715694934 0 0,0 -0.19871966383164996,0.8755955050809211 l -30.4648948077235 -7.18963222301489" fill="#8aff24" stroke="none" /><path d="M 120.16314734710363 105.8691983318838 l 24.754200256530723 7.20558692309599 a46.781600284829445,46.781600284829445 0 0,0 -0.2310647494124646,0.7691394010571956 l -24.62685918711463 -7.62946392774391" fill="#c9ff1d" stroke="none" /><line stroke="#e1ed5e" stroke-width="0.3" x1="174.33088141563837" x2="178.70328620479359" y1="141.23008692659167" y2="143.65538615756765" /><path d="M 175.20536237346943 141.71514677278685 a86.0,86.0 0 0,1 -30.301960400862466,31.631185727798858" fill="none" id="id65" stroke="none" /><text fill="#e1ed5e" style="font-size:6.75px; font-family:Arial;" text-anchor="middle"><textPath startOffset="22.145653131862474" xlink:href="#id65">May</textPath></text><path d="M 116.1254893667686 113.45245675266167 l 10.243966895150452 8.545881523242386 a34.34057527838414,34.34057527838414 0 0,0 -0.3815163287971525,0.44942527601388205 l -10.095756002846183 -8.720473581705825" fill="#ff950d" stroke="none" /><path d="M 114.65682725009322 115.03919595460226 l 5.5358010951273116 5.680219601059428 a28.93158171369825,28.93158171369825 0 0,0 -0.3586517498815076,0.34358026335567804 l -5.437476859380492 -5.774411994720686" fill="#ff4a06" stroke="none" /><path d="M 114.39649973595853 115.28858382429668 l 19.029283825386003 20.208439983094024 a48.757786105116715,48.757786105116715 0 0,0 -0.6142789819073999,0.5685674550007774 l -18.679575072164635 -20.532125184227183" fill="#b2ff20" stroke="none" /><path d="M 113.31354834802062 116.24036423190432 l 9.894833662379726 12.070088190654737 a36.60752261367402,36.60752261367402 0 0,0 -0.4894063701424597,0.39423112852756864 l -9.686176521882015 -12.23816761297571" fill="#ffb410" stroke="none" /><path d="M 113.03279911837588 116.46651593811092 l 11.372120793359363 14.368303124533272 a39.32411705969019,39.32411705969019 0 0,0 -0.5329167929137095,0.4143993214881079 l -11.123794055810421 -14.561403497642173" fill="#ffd814" stroke="none" /><path d="M 111.8722381534696 117.32195027204791 l 15.014966802374518 21.907285292383747 a47.558960389260385,47.558960389260385 0 0,0 -0.6773838850797794,0.4557741085639579 l -14.636686629197737 -22.161809075004825" fill="#c0ff1e" stroke="none" /><path d="M 110.96478420261333 117.91015095944535 l 15.112940280495462 24.685852166633968 a49.944641319503845,49.944641319503845 0 0,0 -0.7350596484450765,0.44138219891214 l -14.686947875492947 -24.94164836608203" fill="#a4ff21" stroke="none" /><line stroke="#e1ed5e" stroke-width="0.3" x1="143.1302829299769" x2="145.66735839644613" y1="173.24464959558577" y2="177.55315839532614" /><path d="M 143.63769802327073 174.10635135553383 a86.0,86.0 0 0,1 -40.68552437913181,11.842963189579606" fill="none" id="id66" stroke="none" /><text fill="#e1ed5e" style="font-size:6.75px; font-family:Arial;" text-anchor="middle"><textPath startOffset="21.407464694133747" xlink:href="#id66">June</textPath></text><path d="M 107.407793817531 119.65005319985036 l 9.80693614087432 26.01406324777334 a48.80121369887183,48.80121369887183 0 0,0 -0.786421910863974,0.2887850187477492 l -9.35892507835622 -26.17857911552981" fill="#b2ff20" stroke="none" /><path d="M 106.0420521117495 120.11202640906438 l 8.10397382085538 26.97549317498623 a49.16649825098672,49.16649825098672 0 0,0 -0.8104043378969664,0.23589689180243423 l -7.639709470576807 -27.110633761091183" fill="#adff20" stroke="none" /><path d="M 104.64783097203109 120.47920084513623 l 3.3392530099460433 14.713364895351752 a36.08753516013146,36.08753516013146 0 0,0 -0.6053041035703177,0.13192321208530705 l -3.08618648975659 -14.768519565570779" fill="#ffad10" stroke="none" /><path d="M 103.94208987418118 120.62667999033965 l 1.701510204704901 8.903020380791121 a30.064155166230165,30.064155166230165 0 0,0 -0.5077481715520659,0.09252863083829924 l -1.548427299601778 -8.930917185560784" fill="#ff5a08" stroke="none" /><path d="M 102.875027216393 120.80226474461374 l 3.6051891566406784 26.0853528144823 a47.33330629281441,47.33330629281441 0 0,0 -0.8058431791865751,0.10433253308819963 l -3.156868155563328 -26.143396943770895" fill="#c3ff1e" stroke="none" /><path d="M 101.80034050326958 120.92268563240118 l 1.7114207817836142 19.88930368282397 a40.962799454984165,40.962799454984165 0 0,0 -0.7011095326154944,0.054270311951021846 l -1.3697422543928839 -19.915751761770046" fill="#ffed16" stroke="none" /><line stroke="#e1ed5e" stroke-width="0.3" x1="101.45913802915013" x2="101.54496967792366" y1="184.9874750549273" y2="189.98673829345242" /><path d="M 101.47630435890484 185.9873277026323 a86.0,86.0 0 0,1 -42.54439059252881,-10.42667462771756" fill="none" id="id67" stroke="none" /><text fill="#e1ed5e" style="font-size:6.75px; font-family:Arial;" text-anchor="middle"><textPath startOffset="22.145653131862474" xlink:href="#id67">July</textPath></text><path d="M 100.36049292484886 120.99690560180557 l 0.17448419426675074 10.162829568880255 a31.164327305835627,31.164327305835627 0 0,0 -0.5349771191156018,0.004592135149807446 l -1.244771090057764e-15 -10.164327305835627" fill="#ff6909" stroke="none" /><path d="M 99.27912038922189 120.98762331915562 l -0.36959057699618436 10.76022639055182 a31.766571839287202,31.766571839287202 0 0,0 -0.5448333738349563,-0.02339748934619882 l 0.5542497114319794 -10.752296332779792" fill="#ff720a" stroke="none" /><path d="M 98.55909050195518 120.95050786540614 l -1.0929261022906978 15.890905662998613 a36.928445318215765,36.928445318215765 0 0,0 -0.6320584867673342,-0.04892532429303901 l 1.365553583833268 -15.86980257171052" fill="#ffb811" stroke="none" /><line stroke="#e1ed5e" stroke-width="0.3" x1="58.13341422392154" x2="55.67067388415222" y1="173.97424548756322" y2="178.32567169271397" /><path d="M 57.64086615596768 174.84453072859336 a86.0,86.0 0 0,1 -31.369924170532247,-30.572349798747897" fill="none" id="id68" stroke="none" /><text fill="#e1ed5e" style="font-size:6.75px; font-family:Arial;" text-anchor="middle"><textPath startOffset="22.145653131862474" xlink:href="#id68">August</textPath></text><line stroke="#e1ed5e" stroke-width="0.3" x1="26.387840678322732" x2="22.057713659400548" y1="142.50000000000003" y2="145.00000000000006" /><path d="M 25.521815274538298 143.00000000000003 a86.0,86.0 0 0,1 -11.493303480769221,-40.785679425670985" fill="none" id="id69" stroke="none" /><text fill="#e1ed5e" style="font-size:6.75px; font-family:Arial;" text-anchor="middle"><textPath startOffset="21.40746469413373" xlink:href="#id69">September</textPath></text><path d="M 79.94057633289273 106.21446072829308 l -9.694746119658944 3.003457129737191 a31.14932791148317,31.14932791148317 0 0,0 -0.15385347239965175,-0.5121281714884307 l 9.744875912062225 -2.8365913546580366" fill="#ff6909" stroke="none" /><path d="M 79.73907114497094 105.5222062557868 l -7.544987958913422 2.0564200192730024 a28.82021141631192,28.82021141631192 0 0,0 -0.12599993206899857,-0.47844226513446936 l 7.579177371787153 -1.9265972497657304" fill="#ff4806" stroke="none" /><line stroke="#e1ed5e" stroke-width="0.3" x1="15.003131293944662" x2="10.003315487706104" y1="100.72959589197737" y2="100.7725132973878" /><path d="M 14.003168132696942 100.73817937305945 a86.0,86.0 0 0,1 10.791469493833604,-42.45332614584628" fill="none" id="id70" stroke="none" /><text fill="#e1ed5e" style="font-size:6.75px; font-family:Arial;" text-anchor="middle"><textPath startOffset="22.145653131862435" xlink:href="#id70">October</textPath></text><path d="M 79.17382384314186 97.30363454192245 l -19.799915313018534 -2.5634954453846412 a40.96517356050815,40.96517356050815 0 0,0 0.09627885454660458,-0.6966258302414738 l 19.752991941916722 2.903009583826182" fill="#ffed16" stroke="none" /><path d="M 79.2786578344484 96.59031103205396 l -39.450539940666395 -6.491571334545548 a60.98106551858777,60.98106551858777 0 0,0 0.178834764260964,-1.031471396768009 l 39.333290358913196 7.167835764234149" fill="#2fff31" stroke="none" /><path d="M 79.407916724674 95.88100663000787 l -13.396447317437218 -2.6796646528761285 a34.661822842532565,34.661822842532565 0 0,0 0.12171629349564783,-0.5824565261709219 l 13.348473313117204 2.9092376303324596" fill="#ff9a0e" stroke="none" /><path d="M 79.83685265289637 94.1308016681162 l -6.18038471481076 -1.7990199165894631 a27.436895826666145,27.436895826666145 0 0,0 0.13551694299137465,-0.45109182872125864 l 6.148591451815755 1.9048493489014453" fill="#ff3404" stroke="none" /><path d="M 80.16572619554312 93.10060997987247 l -23.942816683115275 -8.328554506498183 a46.350015599383255,46.350015599383255 0 0,0 0.2678585719810348,-0.7492480984376003 l 23.796317941090297 8.738337561316705" fill="#cfff1d" stroke="none" /><path d="M 80.41425534168474 92.42381321644754 l -11.981071760676135 -4.6345359397652865 a33.84620581772872,33.84620581772872 0 0,0 0.2142647356560899,-0.5400871019381244 l 11.899748350053915 4.839524058916994" fill="#ff8f0d" stroke="none" /><path d="M 80.9802524753101 91.09779779509293 l -12.196514351341284 -5.708584554539786 a34.466361792956704,34.466361792956704 0 0,0 0.2554133713163001,-0.5337157121129079 l 12.096721722065078 5.917112768717781" fill="#ff970d" stroke="none" /><line stroke="#e1ed5e" stroke-width="0.3" x1="26.387840678322718" x2="22.05771365940052" y1="57.49999999999999" y2="54.99999999999999" /><path d="M 25.521815274538284 56.99999999999999 a86.0,86.0 0 0,1 29.574782752854787,-30.34633250058573" fill="none" id="id71" stroke="none" /><text fill="#e1ed5e" style="font-size:6.75px; font-family:Arial;" text-anchor="middle"><textPath startOffset="21.40746469413373" xlink:href="#id71">November</textPath></text><path d="M 85.86807049272753 84.46653392183569 l -9.284699709440858 -10.2055114206678 a34.797032726346345,34.797032726346345 0 0,0 0.4452942693495352,-0.3981848814730769 l 9.10814041326793 10.363391832024279" fill="#ff9c0e" stroke="none" /><path d="M 87.54013794807813 83.09580414077388 l -2.0373301701006543 -2.7640296563299267 a24.433740549761104,24.433740549761104 0 0,0 0.3397674394345642,-0.24596542403284805 l 1.989581720292122 2.798595851735854" fill="#ff0701" stroke="none" /><line stroke="#e1ed5e" stroke-width="0.3" x1="56.869717070023135" x2="54.33264160355391" y1="26.7553504044142" y2="22.446841604673864" /><path d="M 56.362301976729285 25.89364864446614 a86.0,86.0 0 0,1 42.16139366436587,-11.88097634709845" fill="none" id="id72" stroke="none" /><text fill="#e1ed5e" style="font-size:6.75px; font-family:Arial;" text-anchor="middle"><textPath startOffset="22.145653131862474" xlink:href="#id72">December</textPath></text><path d="M 97.12497278360702 79.19773525538626 l -0.6601484796710179 -4.776505546302169 a25.821908465438487,25.821908465438487 0 0,0 0.43961452178571964,-0.05691690123450777 l 0.5780561359945042 4.787134043737072" fill="#ff1c02" stroke="none" /></svg>