<?xml version="1.0" encoding="utf-8" ?>
<svg baseProfile="full" height="200mm" version="1.1" viewBox="0,0,200,200" width="200mm" xmlns="http://www.w3.org/2000/svg" xmlns:ev="http://www.w3.org/2001/xml-events" xmlns:xlink="http://www.w3.org/1999/xlink"><defs /><rect fill="#1a1a1a" height="200" width="200" x="0" y="0" /><rect fill="#1a1a1a" height="200" width="180" x="10" y="0" /><text alignment-baseline="middle" fill="#e1ed5e" style="dominant-baseline: central; font-size:9.0px; font-family:Arial;" text-anchor="middle" x="100.0" y="100.0">2026</text><line stroke="#e1ed5e" stroke-width="0.3" x1="100.0" x2="100.0" y1="15.0" y2="10.0" /><path d="M 100.0 14.0 a86.0,86.0 0 0,1 42.46469731375804,11.215312516191453" fill="none" id="id85" stroke="none" /><text fill="#e1ed5e" style="font-size:6.75px; font-family:Arial;" text-anchor="middle"><textPath startOffset="22.20632615414155" xlink:href="#id85">January</textPath></text><line stroke="#e1ed5e" stroke-width="0.3" x1="143.23703022742887" x2="145.7803849466894" y1="26.81831364943548" y2="22.513508569990506" /><path d="M 143.74570117128098 25.957352633546492 a86.0,86.0 0 0,1 28.547481713284135,27.462654790039103" fill="none" id="id86" stroke="none" /><text fill="#e1ed5e" style="font-size:6.75px; font-family:Arial;" text-anchor="middle"><textPath startOffset="19.985693538727396" xlink:href="#id86">February</textPath></text><line stroke="#e1ed5e" stroke-width="0.3" x1="172.23445277983987" x2="176.4835382374775" y1="55.19839476539836" y2="52.563006222186495" /><path d="M 173.08426987136738 54.67131705675599 a86.0,86.0 0 0,1 12.851231095245387,41.99856678651699" fill="none" id="id87" stroke="none" /><text fill="#e1ed5e" style="font-size:6.75px; font-family:Arial;" text-anchor="middle"><textPath startOffset="22.20632615414155" xlink:href="#id87">March</textPath></text><line stroke="#e1ed5e" stroke-width="0.3" x1="184.98032266829074" x2="189.97916517819016" y1="98.17113171792111" y2="98.06355123074" /><path d="M 185.9800911702706 98.14961562048488 a86.0,86.0 0 0,1 -9.607161424134198,41.387399972396054" fill="none" id="id88" stroke="none" /><text fill="#e1ed5e" style="font-size:6.75px; font-family:Arial;" text-anchor="middle"><textPath startOffset="21.466115282336823" xlink:href="#id88">April</textPath></text><path d="M 120.99824983174949 100.27111621757518 l 5.749735285760384 0.07423697190119843 a26.750214516373724,26.750214516373724 0 0,0 -0.009907690079569448,0.4603714264769796 l -5.747605532995807 -0.17319821416829287" fill="#ff4006" stroke="none" /><path d="M 120.95626037817324 101.35467743843564 l 2.415397506314214 0.1561387598555312 a23.420438891159648,23.420438891159648 0 0,0 -0.029468980623620064,0.40208082739518325 l -2.4123519670262565 -0.19769272374748467" fill="#ff1001" stroke="none" /><path d="M 120.92983693683757 101.71520430193887 l 4.511104076733964 0.36968587678242926 a25.526226644636587,25.526226644636587 0 0,0 -0.039657307133530724,0.4376150796284069 l -4.504072173323357 -0.4472823449594067" fill="#ff2f04" stroke="none" /><path d="M 120.8583938346157 102.4346265915055 l 9.611600473897145 1.1218820723311018 a30.67685295196934,30.67685295196934 0 0,0 -0.0657339087569044,0.5239639289622725 l -9.590865055893392 -1.2871637555807691" fill="#ff760a" stroke="none" /><path d="M 120.81339534386255 102.79330883721812 l 1.7733276473824076 0.2379934511827336 a22.78922660045526,22.78922660045526 0 0,0 -0.0555253526480955,0.3883441870970199 l -1.7689682437177108 -0.26848311026016286" fill="#ff0701" stroke="none" /><path d="M 120.76222939487914 103.15116336523771 l 5.816070102820976 0.8827273164693991 a26.882676172981924,26.882676172981924 0 0,0 -0.07337465887185318,0.4569040708366111 l -5.800013689587834 -0.9827106169992151" fill="#ff4206" stroke="none" /><path d="M 120.5718875245553 104.21870165774334 l 8.993786806408158 1.844366651543048 a30.18095253579091,30.18095253579091 0 0,0 -0.10874622789678935,0.5080261732504103 l -8.960706539786926 -1.9989066442096273" fill="#ff700a" stroke="none" /><path d="M 120.49622156327973 104.57218783832717 l 2.6758943968260303 0.5969242565046722 a23.741665441108488,23.741665441108488 0 0,0 -0.09241096652487427,0.39810402516946225 l -2.665222864370603 -0.6428969390226994" fill="#ff1502" stroke="none" /><path d="M 120.41448212921028 104.9243191809786 l 46.24838918738195 11.155895531580565 a68.57486213893938,68.57486213893938 0 0,0 -0.28667128664642283,1.1451092890136945 l -46.04950658644047 -11.950332659991656" fill="#3aff90" stroke="none" /><path d="M 120.23288151984713 105.62410040840565 l 8.463605465575652 2.3526143277632383 a29.78449837225319,29.78449837225319 0 0,0 -0.1415577259145169,0.49278101453739603 l -8.421855102775037 -2.497952817805216" fill="#ff6a09" stroke="none" /><path d="M 120.13307415673323 105.97154293290107 l 60.399222470199675 17.914628798703227 a84.0,84.0 0 0,0 -0.4230929099754692,1.3826921097917715 l -60.08190278771807 -18.951647881047055" fill="#4dd2ff" stroke="none" /><path d="M 120.02730092923936 106.31721596034902 l 14.134888382124991 4.458570967740649 a35.82140090037078,35.82140090037078 0 0,0 -0.1905489552392859,0.5864493825658986 l -14.056047175869459 -4.701219250284343" fill="#ffba11" stroke="none" /><path d="M 119.9155931802556 106.66101706037122 l 5.737120391648647 1.9188510460266797 a27.049507395243715,27.049507395243715 0 0,0 -0.1514890518166451,0.4402980950324828 l -5.703240508888771 -2.0173218441484626" fill="#ff4406" stroke="none" /><path d="M 119.79798401119884 107.00284435728193 l 2.1231927286792973 0.751005163507731 a23.252100379364098,23.252100379364098 0 0,0 -0.13671763226298236,0.3761882061011203 l -2.1099508354110883 -0.7874411666149824" fill="#ff0e01" stroke="none" /><path d="M 119.67450827220406 107.3425965602758 l 16.049049633361705 5.989562483759893 a38.13029050778099,38.13029050778099 0 0,0 -0.2347840325436901,0.6129470221539399 l -15.943571321224509 -6.264933072746977" fill="#ffd814" stroke="none" /><path d="M 119.26925614724726 108.34839909993367 l 12.089522018835952 5.237781571298307 a34.17538987781961,34.17538987781961 0 0,0 -0.2385099080656704,0.5377768779112597 l -11.99757102603901 -5.445106785702254" fill="#ffa50f" stroke="none" /><path d="M 119.12269723197855 108.67885076344098 l 8.668270223648703 3.9341010703458443 a30.5192468137921,30.5192468137921 0 0,0 -0.22122876380901232,0.4765070758098532 l -8.59926684299986 -4.082728213434528" fill="#ff740a" stroke="none" /><path d="M 118.97047184881838 109.00673069616215 l 1.993888446898558 0.9466510070239983 a23.207201682623293,23.207201682623293 0 0,0 -0.17443720041369568,0.3593922994443018 l -1.9772979898701482 -0.9808322624335755" fill="#ff0d01" stroke="none" /><path d="M 118.64920377521936 109.65438752849418 l 6.9688738902920555 3.6076719405835864 a28.847324393044325,28.847324393044325 0 0,0 -0.23208014764893797,0.4390081776645933 l -6.905741234418225 -3.727095133334314" fill="#ff5d08" stroke="none" /><line stroke="#e1ed5e" stroke-width="0.3" x1="174.80103733775053" x2="179.2010983576182" y1="140.37084112569926" y2="142.7455964860345" /><path d="M 175.68104954172406 140.8457921977663 a86.0,86.0 0 0,1 -30.038265399797805,32.042727171017184" fill="none" id="id89" stroke="none" /><text fill="#e1ed5e" style="font-size:6.75px; font-family:Arial;" text-anchor="middle"><textPath startOffset="22.206326154141568" xlink:href="#id89">May</textPath></text><path d="M 118.48025628344425 109.97397251340804 l 2.4798903095967706 1.3384207126144525 a23.818018089293847,23.818018089293847 0 0,0 -0.19782972547064423,0.35911841525737204 l -2.4564841746746167 -1.3809096462696295" fill="#ff1602" stroke="none" /><path d="M 118.30583269289576 110.29060199501025 l 7.073928606029296 3.976600521101443 a29.115036514250804,29.115036514250804 0 0,0 -0.2493467237637423,0.4347570303799786 l -7.004429886113174 -4.097777397339736" fill="#ff6108" stroke="none" /><path d="M 118.12598468904814 110.60418214915192 l 1.8429161810215111 1.078154881206501 a23.135124820271713,23.135124820271713 0 0,0 -0.20405083618204453,0.3420009384232749 l -1.8240844691412392 -1.10971791351588" fill="#ff0c01" stroke="none" /><path d="M 117.94076556474637 110.91462005526583 l 7.431290517592038 4.520972766022735 a29.698463859094467,29.698463859094467 0 0,0 -0.2694575006047879,0.43445128811093603 l -7.352368377319288 -4.648220385498944" fill="#ff6909" stroke="none" /><path d="M 117.55443506779139 111.5257021239791 l 7.472608926419199 4.9062851776369385 a29.93932427040768,29.93932427040768 0 0,0 -0.2865576764025416,0.42836484556569865 l -7.387048144605937 -5.034186937408444" fill="#ff6c0a" stroke="none" /><path d="M 117.14729908036423 112.12312394758627 l 4.9891110503347225 3.527296711162012 a27.11007783593191,27.11007783593191 0 0,0 -0.27267601281995746,0.3787231328888831 l -4.927655245139162 -3.612653449502026" fill="#ff4506" stroke="none" /><path d="M 116.71984013943494 112.70617746262583 l 7.22924712295333 5.493838224491935 a30.07988284074292,30.07988284074292 0 0,0 -0.3168316677738826,0.4095476399363603 l -7.133608637961379 -5.617463858541548" fill="#ff6e0a" stroke="none" /><path d="M 116.0416608686014 113.55231037782055 l 7.316315221927707 6.1809668912532025 a30.57772520682126,30.57772520682126 0 0,0 -0.34313666596542086,0.39914546355883385 l -7.208836046391506 -6.305989453973564" fill="#ff750a" stroke="none" /><path d="M 115.56566222782051 114.09645910891815 l 5.022774011392716 4.548687195485164 a27.77634222659192,27.77634222659192 0 0,0 -0.3239959429116094,0.3516336060546743 l -4.943731660485385 -4.634472056341173" fill="#ff4e07" stroke="none" /><path d="M 115.07121518719521 114.62390073753431 l 1.6640209285535472 1.6146327009531256 a23.31862123031154,23.31862123031154 0 0,0 -0.2819991653436493,0.2856636656553301 l -1.6359811381543623 -1.6430368605891204" fill="#ff0f01" stroke="none" /><path d="M 114.55890576462653 115.13401014063108 l 8.229742084378778 8.554832497259572 a32.870712439932305,32.870712439932305 0 0,0 -0.4111408693340247,0.3887593540744831 l -8.081265380653944 -8.695226488079976" fill="#ff940d" stroke="none" /><path d="M 114.0293411484842 115.62618273729858 l 4.207014067642057 4.685862999807614 a27.297323194683926,27.297323194683926 0 0,0 -0.3523403903380692,0.3108994285586157 l -4.1257313243974005 -4.7575855701385175" fill="#ff4806" stroke="none" /><path d="M 113.48314897796784 116.09983520530334 l 5.817733715282593 6.946786261684092 a30.061118305565746,30.061118305565746 0 0,0 -0.3995693375445428,0.3288183622571561 l -5.697294249193359 -7.045899742798427" fill="#ff6e0a" stroke="none" /><path d="M 112.92097659922987 116.55440617244103 l 1.917931814216382 2.4572618036841805 a24.11714581241054,24.11714581241054 0 0,0 -0.32945315639590594,0.2526106317210988 l -1.8753499293269822 -2.489911777232651" fill="#ff1a02" stroke="none" /><path d="M 112.04921762599082 117.19931262002967 l 1.3825985988225231 1.9735510028360144 a23.409664384569155,23.409664384569155 0 0,0 -0.3320193985825148,0.22836596985956698 l -1.3484223156171251 -1.9970577620606753" fill="#ff1001" stroke="none" /><line stroke="#e1ed5e" stroke-width="0.3" x1="143.8653032363475" x2="146.44561519142675" y1="172.8068346515853" y2="177.08958963109032" /><path d="M 144.38136562736335 173.6633856474863 a86.0,86.0 0 0,1 -40.68145358897372,12.25698825130547" fill="none" id="id90" stroke="none" /><text fill="#e1ed5e" style="font-size:6.75px; font-family:Arial;" text-anchor="middle"><textPath startOffset="21.466115282336833" xlink:href="#id90">June</textPath></text><path d="M 110.5260780823613 118.17145234162733 l 10.446760073636115 18.034523525015413 a41.841756999122026,41.841756999122026 0 0,0 -0.6263337098503599,0.355648626758749 l -10.134777596864556 -18.21167531756879" fill="#f8ff18" stroke="none" /><path d="M 109.89434966115114 118.52300852407294 l 4.109092256682992 7.692547110558241 a29.721233870393,29.721233870393 0 0,0 -0.4533324569916444,0.23716211568293902 l -3.9760688971648515 -7.762138645185897" fill="#ff6909" stroke="none" /><path d="M 108.92500713936063 119.00905698771935 l 0.8577987567036296 1.8269952276298378 a23.018348401239116,23.018348401239116 0 0,0 -0.3601078159229954,0.1653078361172308 l -0.8262229450132148 -1.8414901340811431" fill="#ff0a01" stroke="none" /><path d="M 108.59647513512805 119.15986991738527 l 0.5384823077754815 1.2001722575375036 a22.315437814398642,22.315437814398642 0 0,0 -0.35181809982418816,0.15422671598202703 l -0.5177435332935395 -1.209263526813985" fill="#ff0000" stroke="none" /><path d="M 108.2653958097858 119.30500536409082 l 3.431403381955318 8.014529759915211 a29.718211768606047,29.718211768606047 0 0,0 -0.4719938951204071,0.1972934864401685 l -3.2929380273374496 -8.072408289375353" fill="#ff6909" stroke="none" /><line stroke="#e1ed5e" stroke-width="0.3" x1="102.19456741930631" x2="102.32365962044197" y1="184.97166512339345" y2="189.96999836594603" /><path d="M 102.22038585953345 185.97133177190398 a86.0,86.0 0 0,1 -42.740103519485714,-10.115201625700543" fill="none" id="id91" stroke="none" /><text fill="#e1ed5e" style="font-size:6.75px; font-family:Arial;" text-anchor="middle"><textPath startOffset="22.20632615414155" xlink:href="#id91">July</textPath></text><line stroke="#e1ed5e" stroke-width="0.3" x1="58.666819895761336" x2="56.23545636021788" y1="174.27360380694188" y2="178.64263932499728" /><path d="M 58.180547188652646 175.14741091055294 a86.0,86.0 0 0,1 -31.652253787137756,-30.449443065178592" fill="none" id="id92" stroke="none" /><text fill="#e1ed5e" style="font-size:6.75px; font-family:Arial;" text-anchor="middle"><textPath startOffset="22.20632615414155" xlink:href="#id92">August</textPath></text><line stroke="#e1ed5e" stroke-width="0.3" x1="26.63291911575756" x2="22.317208475507996" y1="142.92168965132927" y2="145.44649492493687" /><path d="M 25.769776987707644 143.4266507060508 a86.0,86.0 0 0,1 -11.730757126820373,-40.83630448921669" fill="none" id="id93" stroke="none" /><text fill="#e1ed5e" style="font-size:6.75px; font-family:Arial;" text-anchor="middle"><textPath startOffset="21.46611528233685" xlink:href="#id93">September</textPath></text><line stroke="#e1ed5e" stroke-width="0.3" x1="15.007084014347285" x2="10.007500721073583" y1="101.09737516637583" y2="101.16192664675087" /><path d="M 14.007167355692545 101.11028546245083 a86.0,86.0 0 0,1 10.666146001902534,-42.60595125391555" fill="none" id="id94" stroke="none" /><text fill="#e1ed5e" style="font-size:6.75px; font-family:Arial;" text-anchor="middle"><textPath startOffset="22.20632615414155" xlink:href="#id94">October</textPath></text><line stroke="#e1ed5e" stroke-width="0.3" x1="26.266209847984243" x2="21.928928074336255" y1="57.711370442889674" y2="55.22380399835377" /><path d="M 25.398753493254645 57.213857153982495 a86.0,86.0 0 0,1 29.58750427330803,-30.492523968695096" fill="none" id="id95" stroke="none" /><text fill="#e1ed5e" style="font-size:6.75px; font-family:Arial;" text-anchor="middle"><textPath startOffset="21.46611528233685" xlink:href="#id95">November</textPath></text><line stroke="#e1ed5e" stroke-width="0.3" x1="56.762969772571076" x2="54.21961505331055" y1="26.818313649435495" y2="22.513508569990535" /><path d="M 56.25429882871897 25.957352633546506 a86.0,86.0 0 0,1 42.265352541879196,-11.944610805530505" fill="none" id="id96" stroke="none" /><text fill="#e1ed5e" style="font-size:6.75px; font-family:Arial;" text-anchor="middle"><textPath startOffset="22.20632615414155" xlink:href="#id96">December</textPath></text></svg>